<svg width="288" height="203" viewBox="0 0 288 203" fill="none" xmlns="http://www.w3.org/2000/svg">
<path d="M128.013 199.832L279.045 111.318C281.495 109.882 283 107.255 283 104.416V71.5L123.991 160.5L4.3999 95V128.563C4.3999 131.422 5.92565 134.064 8.4021 135.493L119.97 199.859C122.461 201.296 125.532 201.286 128.013 199.832Z" fill="#EE2722"/>
<rect width="188.883" height="143.285" rx="8.5971" transform="matrix(0.866025 -0.5 0.866025 0.5 0 94.8513)" fill="white"/>
<g clip-path="url(#clip0_28_957)">
<path d="M206.213 68.3866L204.953 67.6595L205.878 67.1256C206.493 66.7705 206.849 66.7839 207.218 66.9965C207.595 67.2141 207.732 67.4857 207.028 67.9159L206.213 68.3866ZM207.63 68.4558C207.919 68.3158 208.151 68.1547 208.546 68.1597C209 68.1673 209.392 68.3933 209.871 68.6059C210.195 68.7527 210.585 68.8884 210.918 69.0167L211.9 68.4499C211.288 68.2905 210.718 68.0256 210.184 67.7945C209.57 67.5312 209.193 67.4015 208.378 67.7168L208.354 67.7033C208.879 67.2454 208.779 66.7899 208.21 66.4609C207.096 65.8182 205.913 66.218 205.011 66.7385L203.416 67.6596L208.342 70.5039L209.111 70.0601L206.981 68.8303L207.63 68.4558ZM211.798 70.5805C214.119 69.2402 214.109 67.0868 211.777 65.7406C209.469 64.4078 205.736 64.4002 203.415 65.7405C201.084 67.086 201.084 69.2487 203.393 70.5814C205.724 71.9277 209.468 71.9259 211.798 70.5805ZM211.065 70.1571C209.148 71.2639 206.048 71.2621 204.131 70.1553C202.237 69.0622 202.234 67.2724 204.151 66.1656C206.059 65.064 209.15 65.0709 211.044 66.164C212.961 67.2707 212.973 69.0554 211.065 70.1571Z" fill="#EE2722"/>
<path d="M162.397 50.2425L155.663 54.1301L162.39 58.0136L169.123 54.126C170.722 53.2032 173.309 53.2124 174.898 54.1297C176.498 55.0534 176.498 56.538 174.899 57.4607L168.166 61.3483L174.898 65.2352L181.632 61.3476C186.945 58.2797 186.941 53.3073 181.632 50.2419C176.321 47.1758 167.711 47.1747 162.397 50.2425ZM159.616 92.9475C167.677 88.2939 169.903 81.5578 166.316 75.7401L174.9 70.7845L186.452 77.4541L191.257 74.6799L179.705 68.0103L186.438 64.1227C194.411 59.5196 194.411 52.0615 186.446 47.4627C178.478 42.8628 165.558 42.8614 157.585 47.4644L146.047 54.1263L163.361 64.1226L156.513 68.0762C145.331 63.2332 129.385 63.7456 119.211 69.6197L95.5315 83.2912L112.382 120.218L118.001 116.974L113.181 106.418L137.387 92.4423L148.939 99.1119L159.616 92.9475ZM193.179 43.5751C204.864 50.3214 204.858 61.2615 193.17 68.0095L204.711 74.6723L186.441 85.2203L177.439 80.0226C178.022 86.0663 174.33 92.2129 166.337 96.8276L148.926 106.88L137.386 100.217L123.778 108.073L128.586 118.623L107.216 130.961L84.7708 81.7302L112.479 65.7328C120.472 61.1181 131.128 58.9921 141.596 59.3291L132.584 54.1255L150.853 43.5776C162.541 36.8296 181.497 36.8305 193.179 43.5751ZM106.613 82.4497L119.115 89.6679L108.374 95.8689L111.184 102.021L132.581 89.6672L113.346 78.5621L106.613 82.4497ZM154.801 72.3932C163.301 77.3006 163.295 85.2582 154.796 90.1648L148.927 93.5532L142.195 89.6664L148.064 86.2779C152.849 83.5155 152.856 79.0425 148.07 76.2793C143.294 73.5218 135.534 73.5188 130.749 76.2812L124.88 79.6697L118.154 75.7862L124.023 72.3977C132.522 67.4912 146.304 67.4878 154.801 72.3932Z" fill="#EE2722"/>
<path d="M162.397 50.2425L155.663 54.1301L162.39 58.0136L169.123 54.126C170.722 53.2032 173.309 53.2124 174.898 54.1297C176.498 55.0534 176.498 56.538 174.899 57.4607L168.166 61.3483L174.898 65.2352L181.632 61.3476C186.945 58.2797 186.941 53.3073 181.632 50.2419C176.321 47.1758 167.711 47.1747 162.397 50.2425ZM159.616 92.9475C167.677 88.2939 169.903 81.5578 166.316 75.7401L174.9 70.7845L186.452 77.4541L191.257 74.6799L179.705 68.0103L186.438 64.1227C194.411 59.5196 194.411 52.0615 186.446 47.4627C178.478 42.8628 165.558 42.8614 157.585 47.4644L146.047 54.1263L163.361 64.1226L156.513 68.0762C145.331 63.2332 129.385 63.7456 119.211 69.6197L95.5315 83.2912L112.382 120.218L118.001 116.974L113.181 106.418L137.387 92.4423L148.939 99.1119L159.616 92.9475ZM193.179 43.5751C204.864 50.3214 204.858 61.2615 193.17 68.0095L204.711 74.6723L186.441 85.2203L177.439 80.0226C178.022 86.0663 174.33 92.2129 166.337 96.8276L148.926 106.88L137.386 100.217L123.778 108.073L128.586 118.623L107.216 130.961L84.7708 81.7302L112.479 65.7328C120.472 61.1181 131.128 58.9921 141.596 59.3291L132.584 54.1255L150.853 43.5776C162.541 36.8296 181.497 36.8305 193.179 43.5751ZM106.613 82.4497L119.115 89.6679L108.374 95.8689L111.184 102.021L132.581 89.6672L113.346 78.5621L106.613 82.4497ZM154.801 72.3932C163.301 77.3006 163.295 85.2582 154.796 90.1648L148.927 93.5532L142.195 89.6664L148.064 86.2779C152.849 83.5155 152.856 79.0425 148.07 76.2793C143.294 73.5218 135.534 73.5188 130.749 76.2812L124.88 79.6697L118.154 75.7862L124.023 72.3977C132.522 67.4912 146.304 67.4878 154.801 72.3932Z" fill="#EE2722"/>
<path d="M162.397 50.2425L155.663 54.1301L162.39 58.0136L169.123 54.126C170.722 53.2032 173.309 53.2124 174.898 54.1297C176.498 55.0534 176.498 56.538 174.899 57.4607L168.166 61.3483L174.898 65.2352L181.632 61.3476C186.945 58.2797 186.941 53.3073 181.632 50.2419C176.321 47.1758 167.711 47.1747 162.397 50.2425ZM159.616 92.9475C167.677 88.2939 169.903 81.5578 166.316 75.7401L174.9 70.7845L186.452 77.4541L191.257 74.6799L179.705 68.0103L186.438 64.1227C194.411 59.5196 194.411 52.0615 186.446 47.4627C178.478 42.8628 165.558 42.8614 157.585 47.4644L146.047 54.1263L163.361 64.1226L156.513 68.0762C145.331 63.2332 129.385 63.7456 119.211 69.6197L95.5315 83.2912L112.382 120.218L118.001 116.974L113.181 106.418L137.387 92.4423L148.939 99.1119L159.616 92.9475ZM193.179 43.5751C204.864 50.3214 204.858 61.2615 193.17 68.0095L204.711 74.6723L186.441 85.2203L177.439 80.0226C178.022 86.0663 174.33 92.2129 166.337 96.8276L148.926 106.88L137.386 100.217L123.778 108.073L128.586 118.623L107.216 130.961L84.7708 81.7302L112.479 65.7328C120.472 61.1181 131.128 58.9921 141.596 59.3291L132.584 54.1255L150.853 43.5776C162.541 36.8296 181.497 36.8305 193.179 43.5751ZM106.613 82.4497L119.115 89.6679L108.374 95.8689L111.184 102.021L132.581 89.6672L113.346 78.5621L106.613 82.4497ZM154.801 72.3932C163.301 77.3006 163.295 85.2582 154.796 90.1648L148.927 93.5532L142.195 89.6664L148.064 86.2779C152.849 83.5155 152.856 79.0425 148.07 76.2793C143.294 73.5218 135.534 73.5188 130.749 76.2812L124.88 79.6697L118.154 75.7862L124.023 72.3977C132.522 67.4912 146.304 67.4878 154.801 72.3932Z" fill="#EE2722"/>
</g>
<defs>
<clipPath id="clip0_28_957">
<rect width="137.017" height="62.1895" fill="white" transform="matrix(0.866025 -0.5 0.866025 0.5 53.3582 99.8663)"/>
</clipPath>
</defs>
</svg>
