<svg width="274" height="194" viewBox="0 0 274 194" fill="none" xmlns="http://www.w3.org/2000/svg">
<path d="M128.02 191.139L263.744 111.044C266.085 109.662 267.565 107.186 267.672 104.47L268.98 71.3275L123.991 151.828L4.40002 86.3276V119.891C4.40002 122.75 5.92578 125.392 8.40223 126.82L119.956 191.179C122.454 192.62 125.535 192.605 128.02 191.139Z" fill="url(#paint0_linear_28_958)"/>
<rect width="172.358" height="143.285" rx="8.5971" transform="matrix(0.866025 -0.5 0.866025 0.5 0 86.1789)" fill="white"/>
<g clip-path="url(#clip0_28_958)">
<path fill-rule="evenodd" clip-rule="evenodd" d="M111.997 125.049L171.905 90.4611L171.895 22.7569L53.3582 91.1939L111.997 125.049" fill="url(#paint1_linear_28_958)"/>
<path fill-rule="evenodd" clip-rule="evenodd" d="M135.432 57.3508L123.725 64.1098L151.298 79.9841L113.559 69.9667L103.451 75.8026L117.753 94.1077C110.974 91.2623 102.903 93.5901 96.6285 95.4656C92.4743 96.698 87.6515 97.767 86.0435 96.7995C84.7222 96.0066 85.2317 94.2694 88.9142 92.3585C91.3862 91.0773 93.647 89.9901 99.7598 88.7601L96.7497 82.3426C91.0787 83.4079 84.674 85.7108 80.409 88.1687L80.3829 88.1838C75.4143 91.0524 72.8863 94.3702 72.9736 97.3818C73.0361 99.4824 74.4252 101.398 76.9884 102.923C80.5041 105.028 84.3547 105.736 89.141 105.315C93.1779 104.956 97.2657 103.874 100.705 102.828C104.946 101.538 108.464 100.515 110.29 101.606C110.942 102.012 111.319 102.526 111.343 103.102C111.369 104.05 110.444 104.945 108.764 105.954C105.529 107.903 102.559 109.017 96.347 109.939L99.8953 116.151C106.013 115.18 111.266 113.432 115.97 110.716L117.02 110.101C121.04 107.694 123.382 105.209 123.898 102.459C123.928 102.301 123.941 102.152 123.958 102L125.798 103.574L135.644 97.8528L132.879 94.21C135.378 93.5013 137.849 92.4811 140.098 91.1826C142.29 89.9172 144.018 88.5344 145.247 87.1328L150.964 89.0076L168.703 78.7856L158.403 72.7887L162.174 70.6115C171.289 65.3489 172.038 59.5596 164.259 55.0682C155.591 50.0676 146.58 50.913 135.43 57.35L135.432 57.3508ZM132.002 86.5083C130.64 87.2945 129.126 87.8949 127.611 88.2884L119.637 79.4176L119.709 79.3762L135.046 84.0331C134.342 84.8908 133.326 85.744 132.001 86.5091L132.002 86.5083ZM152.949 66.673L150.377 68.1581L140.972 62.7285L143.546 61.2426C146.973 59.264 150.851 58.3431 154.351 60.3639C157.971 62.4571 156.377 64.6936 152.95 66.6722" fill="white"/>
</g>
<defs>
<linearGradient id="paint0_linear_28_958" x1="-1" y1="102" x2="174.5" y2="197" gradientUnits="userSpaceOnUse">
<stop stop-color="#01A6E8"/>
<stop offset="1" stop-color="#0167B4"/>
</linearGradient>
<linearGradient id="paint1_linear_28_958" x1="112.626" y1="56.9754" x2="141.946" y2="107.759" gradientUnits="userSpaceOnUse">
<stop stop-color="#00AEEF"/>
<stop offset="0.212" stop-color="#0097DC"/>
<stop offset="0.519" stop-color="#007CC5"/>
<stop offset="0.792" stop-color="#006CB8"/>
<stop offset="1" stop-color="#0066B3"/>
</linearGradient>
<clipPath id="clip0_28_958">
<rect width="136.874" height="67.7102" fill="white" transform="matrix(0.866025 -0.5 0.866025 0.5 53.3582 91.1939)"/>
</clipPath>
</defs>
</svg>
