<svg width="400" height="290" viewBox="0 0 400 290" fill="none" xmlns="http://www.w3.org/2000/svg">
<path d="M199.806 285.585L389.053 174.661C392.923 172.393 395.3 168.245 395.3 163.76V110.978L193.456 223.459L4.3999 120V173.011C4.3999 177.529 6.81161 181.703 10.7255 183.959L187.105 285.631C191.039 287.899 195.888 287.881 199.806 285.585Z" fill="#16274C"/>
<rect width="239.856" height="221.643" rx="8.5971" transform="matrix(0.866025 -0.5 0.866025 0.5 0 119.928)" fill="white"/>
<path d="M274.589 120.005L285.964 138.652C286.567 139.631 286.045 140.592 284.952 141.223C283.86 141.853 282.204 142.15 280.508 141.811L192.354 123.879L179.177 121.196L164.834 118.282L90.9325 103.249L116.365 88.5659C118.347 87.4219 121.282 87.0358 123.932 87.5678L138.064 90.4443L138.08 90.4537L157.699 94.4365L185.105 100.015L212.144 105.514C212.144 105.514 212.185 105.519 212.201 105.519L226.332 108.395L269.826 117.246C272.061 117.698 273.822 118.715 274.605 120.005L274.589 120.005ZM211.255 33.7812L190.756 45.6166L197.255 56.2703C197.646 56.9106 196.578 57.5273 195.469 57.3013L181.338 54.4249C178.696 53.8976 175.752 54.2789 173.771 55.4229L148.338 70.1066L249.661 90.7173C253.053 91.4047 256.315 89.5215 255.125 87.5631L223.266 35.3583C221.489 32.4394 215.047 31.592 211.255 33.7812ZM243.472 156.688L153.026 138.29C149.634 137.602 146.373 139.485 147.563 141.444L183.262 199.943L208.695 185.259C210.676 184.115 211.345 182.421 210.407 180.891L205.425 172.732C205.034 172.092 206.102 171.475 207.211 171.701L225.664 175.453L246.179 163.608C249.963 161.424 248.503 157.709 243.456 156.688L243.472 156.688Z" fill="#16274C"/>
</svg>
