<svg width="474" height="310" viewBox="0 0 474 310" fill="none" xmlns="http://www.w3.org/2000/svg">
<path d="M128.153 307.184L465.162 111.82C467.63 110.389 469.15 107.752 469.15 104.899V72L124.144 267.819L4.3999 202.319V235.879C4.3999 238.74 5.92734 241.383 8.40595 242.811L120.146 307.194C122.625 308.623 125.678 308.618 128.153 307.184Z" fill="#73C41D"/>
<rect width="403.486" height="143.285" rx="8.5971" transform="matrix(0.866025 -0.5 0.866025 0.5 0 202.17)" fill="white"/>
<g clip-path="url(#clip0_28_1026)">
<path d="M167.674 185.785C160.572 189.885 151.566 188.485 146.196 185.385C140.654 182.185 138.575 176.985 145.677 172.885C151.219 169.685 160.399 169.585 167.154 173.485C173.389 177.285 173.043 182.685 167.674 185.785ZM156.415 167.885C152.085 167.785 146.369 167.885 141.173 170.885C132.686 175.785 132.686 183.185 141.52 188.285C150.873 193.685 163.69 193.085 171.484 188.585C176.334 185.785 177.546 182.485 177.027 179.785L177.2 179.685L181.01 181.885L185.687 179.185L157.281 162.785L152.605 165.485L156.588 167.785L156.415 167.885Z" fill="#73C41D"/>
<path d="M192.788 141.085C187.765 143.985 187.246 147.685 188.805 150.185C184.301 148.985 178.066 149.585 173.563 152.185C169.925 154.285 168.886 157.085 169.579 159.685L169.406 159.785L165.768 157.685L161.092 160.385L189.497 176.785L194.174 174.085L178.412 164.985C172.523 161.585 172.177 157.785 176.854 155.085C181.01 152.685 187.246 153.285 191.922 155.985L208.896 165.785L213.746 162.985L197.811 153.785C191.23 149.985 192.269 146.185 196.252 143.885C201.102 141.085 206.991 142.085 211.494 144.685L228.469 154.485L233.145 151.785L216.517 142.185C208.03 137.285 199.197 137.385 192.788 141.085Z" fill="#73C41D"/>
<path d="M282.162 119.685C276.62 122.885 267.266 123.085 260.685 119.285C254.449 115.685 254.103 110.485 260.165 106.985C266.4 103.385 275.407 103.785 281.469 107.285C287.705 110.885 288.224 116.185 282.162 119.685ZM256.008 104.585C247.348 109.585 247.175 117.085 256.008 122.185C264.668 127.185 277.832 127.185 286.492 122.185C295.326 117.085 294.806 109.385 286.492 104.585C277.659 99.4852 264.842 99.4853 256.008 104.585Z" fill="#73C41D"/>
<path d="M315.764 100.285C310.221 103.485 300.868 103.685 294.286 99.8852C288.051 96.2852 287.705 91.0852 293.767 87.5852C300.002 83.9852 309.009 84.3852 315.071 87.8852C321.133 91.5852 321.653 96.8852 315.764 100.285ZM289.61 85.1852C280.95 90.1852 280.776 97.6852 289.61 102.785C298.27 107.785 311.434 107.785 320.094 102.785C328.927 97.6852 328.408 89.9852 320.094 85.1852C311.261 80.0852 298.443 80.0852 289.61 85.1852Z" fill="#73C41D"/>
<path d="M340.359 71.0851L325.117 79.8851L312.993 72.8851L309.529 74.8851L337.934 91.2852L341.398 89.2852L328.235 81.6852L343.477 72.8851L356.64 80.4852L360.104 78.4852L331.699 62.0851L328.235 64.0851L340.359 71.0851Z" fill="#73C41D"/>
<path d="M353.696 64.7852L343.477 58.8852L348.673 55.8852C352.31 53.7852 356.294 53.6852 359.585 55.5852C362.356 57.1852 362.703 59.5852 358.892 61.7852L353.696 64.7852ZM364.261 61.8852C367.206 59.3852 367.033 55.8852 363.049 53.5852C359.065 51.2852 352.137 50.2852 345.036 54.3852L336.895 59.0852L365.301 75.4852L368.765 73.4852L356.987 66.6852L360.797 64.4852L381.236 66.2852L385.566 63.7852L364.261 61.8852Z" fill="#73C41D"/>
<path d="M358.199 46.7852L362.703 44.1852L363.395 44.5852L361.49 45.6852L367.033 48.8852L366.167 49.3852L360.624 46.1852L358.892 47.1852L358.199 46.7852Z" fill="#73C41D"/>
<path d="M371.016 44.3852L368.591 40.7852L369.631 40.1852L376.212 43.5852L375.346 44.0852L370.15 41.2852L372.402 44.7852L371.709 45.1852L365.647 43.8852L370.497 46.8852L369.631 47.3852L363.742 43.5852L364.781 42.9852L371.016 44.3852Z" fill="#73C41D"/>
<path d="M133.379 205.985C127.49 209.385 117.791 209.585 111.555 205.985C105.32 202.385 104.454 196.885 111.209 192.985C118.137 188.985 127.663 189.885 133.379 193.185C139.614 196.785 140.134 202.085 133.379 205.985ZM107.052 190.185C101.509 193.385 100.47 196.185 100.47 198.585L100.47 199.185L82.1104 188.585L77.4338 191.285L107.398 208.585C116.578 213.885 129.569 213.185 137.709 208.485C146.716 203.285 146.543 195.385 137.709 190.285C129.569 185.385 115.193 185.485 107.052 190.185Z" fill="#73C41D"/>
<path d="M248.907 139.285C243.018 142.685 233.318 142.885 227.083 139.285C220.848 135.685 219.982 130.185 226.737 126.285C233.665 122.285 243.191 123.185 248.907 126.485C254.969 130.185 255.662 135.385 248.907 139.285ZM222.58 123.485C217.037 126.685 215.998 129.485 215.998 131.885L215.998 132.485L200.409 123.485L195.733 126.185L222.926 141.885C232.106 147.185 245.096 146.485 253.237 141.785C262.244 136.585 262.07 128.685 253.237 123.585C244.923 118.785 230.72 118.785 222.58 123.485Z" fill="#73C41D"/>
<path d="M95.1006 204.085C95.1006 204.085 92.6758 205.085 90.5973 205.885C88.3456 206.785 87.3064 207.185 83.6691 208.085C80.205 208.885 75.3553 208.885 70.5055 208.485C65.4826 208.185 55.9563 208.685 55.9563 208.685C55.9563 208.685 57.6883 207.885 59.7668 207.085C61.4988 206.485 66.0022 205.085 71.3716 204.185C72.584 203.885 73.2768 203.885 74.6624 203.685C76.5677 203.385 78.9926 203.385 81.4175 203.385C84.1887 203.385 86.6136 203.385 88.8653 203.485C85.5744 202.985 75.0089 200.285 63.0577 199.985C61.8453 199.885 69.2931 198.985 71.718 198.985C78.9926 199.185 81.5906 200.085 86.2672 201.385L95.1006 204.085Z" fill="#73C41D"/>
</g>
<defs>
<clipPath id="clip0_28_1026">
<rect width="350" height="50" fill="white" transform="matrix(0.866025 -0.5 0.866025 0.5 53.3582 207.185)"/>
</clipPath>
</defs>
</svg>
