<svg width="230" height="169" viewBox="0 0 230 169" fill="none" xmlns="http://www.w3.org/2000/svg">
<path d="M128.009 165.869L221.107 111.995C223.578 110.564 225.1 107.926 225.1 105.07V71.6838L124 126.5L4.40002 61.0001V94.5631C4.40002 97.4222 5.92587 100.064 8.40244 101.493L120.005 165.874C122.482 167.303 125.534 167.301 128.009 165.869Z" fill="#34A853"/>
<rect width="121.703" height="143.285" rx="8.5971" transform="matrix(0.866025 -0.5 0.866025 0.5 0 60.8514)" fill="white"/>
<path d="M145.804 49.12C143.762 47.9408 141.642 46.9259 139.444 46.0154L110.232 62.8813L121.891 69.6127L138.617 59.9559C141.694 62.5977 142.728 65.7321 141.668 68.8813L149.423 73.359L159.402 67.5978C159.841 61.1051 155.24 54.5678 145.804 49.12Z" fill="#4285F4"/>
<path d="M146.424 83.777C154.8 78.9412 159.014 73.2844 159.402 67.5978L141.668 68.8814C140.737 71.568 138.333 74.2695 134.145 76.6874C126.053 81.3591 113.748 82.1651 103.924 79.3292L93.635 85.2696L101.623 89.8816C116.85 92.7921 134.3 90.7771 146.424 83.777Z" fill="#34A853"/>
<path d="M103.924 79.3293C101.416 78.6278 99.0898 77.6725 97.0217 76.4785C94.9535 75.2844 93.3249 73.9262 92.084 72.4934L84.0958 67.8814L73.8068 73.8217C75.8749 77.4636 79.3649 80.8815 84.3802 83.7771C89.3954 86.6726 95.3155 88.6876 101.623 89.8816L103.924 79.3293Z" fill="#FBBC05"/>
<path d="M96.6597 55.0454C101.235 52.4035 106.897 50.9558 113.205 50.8662L113.205 40.6572C102.838 40.8512 92.7561 43.1199 84.3801 47.9557C72.2556 54.9558 68.7657 65.0305 73.8067 73.8217L92.0839 72.4933C87.1721 66.8216 88.5681 59.7171 96.6597 55.0454Z" fill="#EA4335"/>
</svg>
