<svg width="333" height="228" viewBox="0 0 333 228" fill="none" xmlns="http://www.w3.org/2000/svg">
<path d="M128.105 225.21L323.795 112.806C326.278 111.38 327.81 108.734 327.81 105.869V70.9913L124.105 185.819L4.3999 120.319V153.88C4.3999 156.74 5.92692 159.383 8.40499 160.811L120.126 225.204C122.595 226.627 125.634 226.629 128.105 225.21Z" fill="url(#paint0_linear_28_994)"/>
<rect width="240.34" height="143.285" rx="8.5971" transform="matrix(0.866025 -0.5 0.866025 0.5 0 120.17)" fill="white"/>
<path d="M120.832 139.077L116.962 141.311C116.121 141.797 115.28 141.894 113.597 141.7L88.862 137.911C88.3574 137.814 88.189 137.911 88.0209 138.008C87.8527 138.106 87.6842 138.203 88.0207 138.397L104.006 147.626C104.51 147.917 104.847 148.306 104.342 148.597L99.799 151.22C99.2942 151.512 98.6212 151.318 98.1165 151.026L70.8576 135.288C70.0164 134.803 70.0164 134.22 70.8577 133.734L74.8962 131.403C75.7375 130.917 76.4105 130.917 77.7567 131.111L103.501 135.094C103.838 135.094 104.006 135.191 104.174 135.094C104.174 135.094 104.174 134.9 104.006 134.803L87.1793 125.088C86.6746 124.796 87.0112 124.408 87.3477 124.214L92.0592 121.493C92.564 121.202 93.237 121.202 93.5734 121.396L120.832 137.134C121.674 137.62 121.674 138.591 120.832 139.077Z" fill="#16212D"/>
<path d="M143.884 125.768L139.509 128.294C139.005 128.585 138.332 128.391 137.827 128.099L137.154 127.711C136.481 129.459 135.808 130.625 133.452 131.985C129.919 134.025 125.039 134.9 119.823 131.888L119.486 131.694C114.775 128.974 115.785 126.253 122.515 122.368L124.703 121.105L123.188 120.23C121.001 118.967 119.15 119.259 117.299 120.327C114.775 121.785 112.082 123.533 110.736 124.31L110.568 124.408C110.232 124.602 109.895 124.796 109.39 124.505L106.193 122.659C105.689 122.367 105.689 122.173 106.025 121.785C107.203 120.716 109.39 118.87 112.082 117.316C117.804 114.013 123.693 113.333 129.414 116.636L143.548 124.796C144.053 124.893 144.389 125.476 143.884 125.768ZM128.404 123.048L126.049 124.408C123.188 126.059 123.356 127.128 125.375 128.294L125.712 128.488C127.395 129.46 128.573 129.168 130.255 128.197C131.433 127.517 132.274 126.642 132.779 125.768L128.236 123.145L128.404 123.048L128.404 123.048Z" fill="#16212D"/>
<path d="M178.211 105.949L173.331 108.767C172.826 109.058 171.816 108.864 171.48 108.67L158.019 100.898C155.495 99.4409 154.148 99.2464 152.298 100.315C151.624 100.704 150.447 101.578 149.942 102.452L165.927 111.681C166.432 111.973 166.768 112.361 166.264 112.653L161.384 115.47C160.879 115.761 159.87 115.567 159.533 115.373L146.072 107.601C143.548 106.144 142.202 105.949 140.351 107.018C139.678 107.407 139.005 108.184 138.332 109.35L154.149 118.482C154.654 118.773 154.99 119.162 154.653 119.356L149.774 122.173C149.269 122.465 148.091 122.368 147.755 122.173L126.722 110.03C126.217 109.739 126.554 109.35 127.058 109.058L131.602 106.435C132.106 106.144 132.611 106.047 133.116 106.338L133.957 106.824C134.125 105.367 135.472 103.618 137.828 102.258C139.847 101.092 141.866 100.51 144.558 100.704C145.568 98.5665 146.409 97.3038 148.933 95.8466C154.149 92.835 159.197 94.0008 164.413 97.0124L177.874 104.784C178.379 105.075 178.715 105.658 178.211 105.949Z" fill="#16212D"/>
<path d="M192.176 86.8117L179.388 94.1951C181.576 95.458 184.773 96.1377 187.97 94.2921C190.494 92.8346 193.691 90.6003 195.374 89.6286L195.542 89.5318C196.047 89.2402 196.551 89.1431 196.888 89.3376L199.917 91.0861C200.59 91.4745 200.59 91.6692 200.085 92.1548C198.234 94.0004 196.383 95.4576 192.849 97.4979C187.969 100.315 180.23 101.87 172.49 97.4009L169.629 95.7494C163.235 92.0579 163.067 87.4918 169.292 83.8974C175.855 80.1083 183.763 80.7889 189.652 84.189L192.176 85.6461C192.849 86.0347 192.682 86.5201 192.176 86.8117ZM182.586 87.4917C179.725 85.8401 176.865 85.7426 174.509 87.1029C172.321 88.3662 172.321 90.1148 175.182 91.7664L182.586 87.4917Z" fill="#16212D"/>
<path d="M212.032 86.4227L207.152 89.2401C206.647 89.5317 205.638 89.3374 205.301 89.1431L176.36 72.4338C175.855 72.1425 176.192 71.7537 176.528 71.5595L181.408 68.7421C181.913 68.451 182.418 68.5479 182.754 68.7422L211.527 85.3544C212.032 85.6458 212.536 86.1316 212.032 86.4227Z" fill="#16212D"/>
<path d="M215.398 59.0271L232.056 76.4167C235.253 79.6226 235.589 81.76 229.7 85.16C228.186 86.034 225.493 87.2003 224.147 87.5889C223.474 87.783 222.97 87.8801 222.633 87.6857L219.436 85.8398C218.931 85.5484 218.763 85.0627 219.267 84.7715C221.118 84.2855 223.305 82.8286 224.652 82.0512C225.998 81.2742 226.503 80.594 225.325 79.3313L224.82 78.4567L224.315 78.7483C222.8 79.6226 221.286 80.1081 216.912 78.7481L193.86 71.462L193.692 71.3649C193.355 71.1706 193.355 70.9766 194.028 70.588L199.244 67.5764C199.581 67.3822 200.253 67.3823 200.59 67.5765L219.099 74.1822C219.772 74.3762 220.109 74.5707 220.446 74.3764L220.782 74.1821L208.835 63.0101C208.499 62.8159 208.499 62.4273 209.004 62.1358L214.219 59.1246C214.388 58.8329 215.061 58.6389 215.398 59.0271C215.398 59.0271 215.229 58.93 215.398 59.0271Z" fill="#16212D"/>
<path d="M214.892 31.9233L218.089 37.0719L217.416 37.0719C216.407 37.0721 215.566 37.169 214.892 37.3632C214.051 37.4608 213.378 37.8493 212.705 38.2378C211.696 38.8206 211.191 39.5004 210.686 40.1808C210.349 40.9579 210.518 41.6377 211.022 42.3178L217.416 52.2269L229.868 49.5067L226.67 44.358C227.007 44.3578 227.007 44.3578 227.175 44.455C228.185 44.4547 229.026 44.358 229.7 44.1636C230.541 44.0663 231.214 43.6778 231.887 43.2892C232.896 42.7065 233.401 42.0264 233.569 41.3463C233.738 40.6664 233.738 39.889 233.234 39.2091L226.839 29.3001L214.892 31.9233Z" fill="#1076BC"/>
<defs>
<linearGradient id="paint0_linear_28_994" x1="-1.00528" y1="135.991" x2="174.587" y2="231.132" gradientUnits="userSpaceOnUse">
<stop stop-color="#1076BC"/>
<stop offset="1" stop-color="#0167B4"/>
</linearGradient>
</defs>
</svg>
