<svg width="230" height="170" viewBox="0 0 230 170" fill="none" xmlns="http://www.w3.org/2000/svg">
<path d="M128.009 166.869L221.107 112.994C223.578 111.564 225.1 108.926 225.1 106.07V72.6837L124 127.5L4.40002 62V95.5631C4.40002 98.4222 5.92587 101.064 8.40244 102.493L120.005 166.874C122.482 168.303 125.534 168.301 128.009 166.869Z" fill="#3C163B"/>
<rect width="121.7" height="143.29" rx="8.5971" transform="matrix(0.866025 -0.5 0.866025 0.5 0 61.1795)" fill="white"/>
<path d="M103.511 80.7002C106.954 82.6885 106.954 85.9369 103.511 87.9251C100.067 89.9134 94.4404 89.9134 90.9967 87.9251C87.5529 85.9369 87.5529 82.6885 90.9967 80.7002L97.2536 77.0878L103.511 80.7002Z" fill="#E01E5A"/>
<path d="M106.663 78.88C103.22 76.8918 103.22 73.6434 106.663 71.6551C110.107 69.6669 115.733 69.6669 119.177 71.6551L134.844 80.7002C138.288 82.6885 138.288 85.9369 134.844 87.9251C131.4 89.9134 125.774 89.9134 122.33 87.9251L106.663 78.88Z" fill="#E01E5A"/>
<path d="M87.7955 60.7618C84.3517 62.75 78.7253 62.75 75.2816 60.7618C71.8379 58.7736 71.8379 55.5252 75.2816 53.5369C78.7253 51.5487 84.3517 51.5487 87.7955 53.5369L94.0524 57.1494L87.7955 60.7618Z" fill="#36C5F0"/>
<path d="M90.9482 62.5821C94.3919 60.5938 100.018 60.5938 103.462 62.5821C106.906 64.5703 106.906 67.8187 103.462 69.807L87.7955 78.8521C84.3517 80.8403 78.7253 80.8403 75.2816 78.8521C71.8379 76.8638 71.8379 73.6154 75.2816 71.6272L90.9482 62.5821Z" fill="#36C5F0"/>
<path d="M122.33 51.6887C118.886 49.7004 118.886 46.452 122.33 44.4638C125.774 42.4755 131.4 42.4755 134.844 44.4638C138.288 46.452 138.288 49.7004 134.844 51.6887L128.587 55.3011L122.33 51.6887Z" fill="#2EB67D"/>
<path d="M119.177 53.5089C122.621 55.4971 122.621 58.7456 119.177 60.7338C115.733 62.722 110.107 62.722 106.663 60.7338L90.9967 51.6887C87.5529 49.7004 87.5529 46.452 90.9967 44.4638C94.4404 42.4755 100.067 42.4755 103.511 44.4638L119.177 53.5089Z" fill="#2EB67D"/>
<path d="M138.045 71.6272C141.489 69.6389 147.115 69.6389 150.559 71.6272C154.003 73.6154 154.003 76.8638 150.559 78.8521C147.115 80.8403 141.489 80.8403 138.045 78.8521L131.788 75.2396L138.045 71.6272Z" fill="#ECB22E"/>
<path d="M134.892 69.8069C131.449 71.7952 125.822 71.7951 122.378 69.8069C118.935 67.8187 118.935 64.5703 122.378 62.582L138.045 53.5369C141.489 51.5487 147.115 51.5487 150.559 53.5369C154.003 55.5251 154.003 58.7735 150.559 60.7618L134.892 69.8069Z" fill="#ECB22E"/>
</svg>
